<svg width="32" height="32" viewBox="0 0 32 32" fill="none" xmlns="http://www.w3.org/2000/svg">
  <!-- Bike Wheel with Accessories -->
  <circle cx="16" cy="16" r="14" stroke="white" stroke-width="1.5" fill="none" opacity="0.2"/>
  <circle cx="16" cy="16" r="10" stroke="white" stroke-width="1.5" fill="none" opacity="0.3"/>
  <circle cx="16" cy="16" r="6" stroke="white" stroke-width="1.5" fill="none"/>
  <circle cx="16" cy="16" r="2" fill="white"/>
  
  <!-- Spokes -->
  <line x1="16" y1="6" x2="16" y2="10" stroke="white" stroke-width="1.5" opacity="0.4"/>
  <line x1="16" y1="22" x2="16" y2="26" stroke="white" stroke-width="1.5" opacity="0.4"/>
  <line x1="6" y1="16" x2="10" y2="16" stroke="white" stroke-width="1.5" opacity="0.4"/>
  <line x1="22" y1="16" x2="26" y2="16" stroke="white" stroke-width="1.5" opacity="0.4"/>
  
  <!-- Accessories - Helmet -->
  <path d="M8 10 Q8 8 10 8 Q12 8 12 10" stroke="white" stroke-width="1.2" fill="none" opacity="0.6"/>
  <line x1="10" y1="8" x2="10" y2="6" stroke="white" stroke-width="1.2" opacity="0.6"/>
  
  <!-- Accessories - Lock -->
  <rect x="22" y="6" width="4" height="3" rx="0.5" stroke="white" stroke-width="1.2" fill="none" opacity="0.6"/>
  <line x1="24" y1="9" x2="24" y2="11" stroke="white" stroke-width="1.2" opacity="0.6"/>
  
  <!-- Accessories - Water Bottle -->
  <path d="M24 22 Q24 20 25 20 Q26 20 26 22 L26 25 Q26 26 25 26 Q24 26 24 25 Z" stroke="white" stroke-width="1.2" fill="none" opacity="0.6"/>
</svg>

